<?xml version="1.0" encoding="utf-8"?>
<!-- Generator: Adobe Illustrator 22.0.1, SVG Export Plug-In . SVG Version: 6.00 Build 0)  -->
<svg version="1.1" xmlns="http://www.w3.org/2000/svg" xmlns:xlink="http://www.w3.org/1999/xlink" x="0px" y="0px"
	 viewBox="0 0 1634 1962.4" style="enable-background:new 0 0 1634 1962.4;" xml:space="preserve">
<style type="text/css">
	.st0{fill:#FFFFFF;}
	.st1{fill:#131313;}
	.st2{fill:#FFB000;}
	.st3{fill:#FC2016;}
	.st4{fill:#1B130F;}
	.st5{fill:#D6D6D6;}
</style>
<g id="Слой_22">
	<path class="st0" d="M1478,311.2L1478,311.2c1.4-29.2-18.4-55.1-46.9-61.5l-6-1.3c-552.4-119.8-1063.5-32.3-1221.6,1
		c-28.8,6.1-49,32.2-47.6,61.6l0,0.2c3.4,72.5,7.9,145.9,13.3,218.1l1.6,21.8l-1.2,16.7c-0.7,9.5-15.2,232.1,37.4,470.8
		c-1.6,11-1.5,20.4-1.2,26.6c-6.4,18-9.3,37.2-8.6,57.2c1.5,41.3,5.1,115,12.1,168.6c-5.8,23.9-4.3,50,4.5,74.4
		c0.8,3.9,1.9,10.3,2.4,13.9c1.1,32.1,16.2,62.7,42.8,86.5c22.4,20,50.5,33.1,77.2,35.9c11.6,1.2,38.3,1.4,58.7,1.4
		c15.7,0,26.6-0.2,34.3-0.4c27,33.6,134.4,137.1,157.5,159.3c2.8,2.6,4.4,6.2,4.8,10c1.8,16,8.5,31.8,16.2,46.2
		c18.8,35.2,54.1,57.1,92.1,57.1h237.3c38,0,73.2-21.8,92.1-57c7.7-14.3,12.1-30.1,13.5-46c0.3-3.9,2-7.6,4.9-10.3
		c23.6-22.4,131.9-125.7,158.9-159.2c7.8,0.3,18.6,0.4,34.3,0.4c20.4,0,47.2-0.3,58.7-1.4c26.7-2.8,54.8-15.8,77.2-35.9
		c26.6-23.8,41.7-54.4,42.8-86.5c0.5-3.6,1.6-10,2.4-13.9c8.7-24.4,10.2-50.5,4.5-74.4c7.1-53.6,10.6-127.3,12.1-168.6
		c0.7-20-2.1-39.2-8.6-57.2c0.2-6.2,0.3-15.5-1.2-26.6c52.6-238.7,38.1-461.3,37.4-470.8l-2.3-33.3l0.4-5.1
		C1470.1,457.1,1474.6,383.7,1478,311.2z"/>
</g>
<g id="Слой_21">
	<path class="st0" d="M1147.1,1407.5l202.3-534.2c0,0,18.8-137.1,11.8-264.5c0,0-315.2-75.7-543-67.3c-227.9-8.4-543,67.3-543,67.3
		c-7,127.4,11.8,264.5,11.8,264.5l202.3,534.2c74,106.3,210.2,206,210.2,206l-9.7,15.9l0.4,0.3l-31.2,52.8c-7.1,12-7.2,26.9-0.3,39
		c6.9,12.1,19.8,19.6,33.7,19.6h125.8H944c13.9,0,26.8-7.5,33.7-19.6c6.9-12.1,6.8-27-0.3-39l-31.2-52.8l0.4-0.3l-9.7-15.9
		C936.9,1613.5,1073.1,1513.7,1147.1,1407.5z"/>
</g>
<g id="Слой_20">
	<path class="st1" d="M1406.6,571.6c-323.2-80.8-562.7-77.9-588.5-77.3c-25.8-0.6-265.2-3.5-588.5,77.3c0,0-18.4,267.2,53.8,524.2
		l172,341.7c0,0,94.2,131.3,219.9,215.5l14.4-23.6l9.7-15.9c0,0-136.3-99.8-210.2-206L286.9,873.2c0,0-18.8-137.1-11.8-264.5
		c0,0,315.2-75.7,543-67.3c227.9-8.4,543,67.3,543,67.3c7,127.4-11.8,264.5-11.8,264.5l-202.3,534.2c-74,106.3-210.2,206-210.2,206
		l9.7,15.9L961,1653c125.7-84.3,219.9-215.5,219.9-215.5l172-341.7C1425.1,838.8,1406.6,571.6,1406.6,571.6z"/>
</g>
<g id="Слой_19">
	<path class="st2" d="M1237.8,601.7c0,0,46,10.5,108.3,17.6c0,0,4.9,174.5-13.4,254.8l-218.4,533.2c0,0-103.3,133.9-186.6,190.5
		l-18.1-30.1c0,0,75.7-93,114.4-161l194.2-553.5C1218.4,853.2,1230.1,827,1237.8,601.7z"/>
</g>
<g id="Слой_18">
	<path class="st2" d="M398.6,601.7c0,0-46,10.5-108.3,17.6c0,0-4.9,174.5,13.4,254.8l218.4,533.2c0,0,103.3,133.9,186.6,190.5
		l18.1-30.1c0,0-75.7-93-114.4-161L418,853.2C418,853.2,406.3,827,398.6,601.7z"/>
</g>
<g id="Слой_17">
	<path class="st3" d="M945.4,1725h-253c-8.2,0-15.8-4.4-19.8-11.5c-4-7.1-4-15.9,0.2-22.9l126.8-214.1c4.1-7,11.5-11.2,19.6-11.2
		c0,0,0,0,0,0c8.1,0,15.5,4.2,19.6,11.2L965,1690.7c4.1,7,4.2,15.8,0.2,22.9C961.1,1720.6,953.6,1725,945.4,1725z M705.2,1694.9
		h227.4l-113.5-192.5L705.2,1694.9z"/>
</g>
<g id="Слой_16">
	<path class="st4" d="M777.5,1590.5h23.3l18,46.1c0.4,1,1.8,1,2.1,0l18-46.1h22.6l-36.5,82.1c-3.7,8.4-12,13.8-21.2,13.8h-18.2
		l-3.5-13.2c10.8,0.2,21.7,0.5,27.2-12c0.6-1.4,0.6-3-0.1-4.3L777.5,1590.5z"/>
</g>
<g id="Слой_15">
	<path class="st1" d="M1373.5,1084.2c-3.7-10.1-3.6-13.4-3.3-18.8c0.3-5.2,0.7-13.1-1.2-22.5c-5.4-26.8-16.5-50.2-32.6-69
		c18.5-11.6,30.4-32.1,30.4-55.3v-4.6c0-21.9-12.8-42-32.6-51.3c-18.5-8.7-46.3-19.2-73.3-20.2c-1,0-2-0.1-3-0.1
		c-21.5,0-39.1,8.2-51.9,20.6c-41.5-58.7-86.9-99.7-109.4-111.3c-22.7-11.6-50.9-20.4-115.3-25.5c-55.7-4.4-151.5-6-163-6.1
		c-11.4,0.2-107.3,1.7-163,6.1c-64.4,5.1-92.6,13.9-115.3,25.5c-22.5,11.5-67.9,52.6-109.4,111.3c-12.9-12.4-30.4-20.6-51.9-20.6
		c-1,0-2,0-3,0.1c-27,1-54.8,11.5-73.3,20.2c-19.8,9.3-32.6,29.4-32.6,51.3v4.6c0,23.2,11.9,43.8,30.4,55.3
		c-16.2,18.8-27.3,42.2-32.6,69c-1.9,9.4-1.5,17.3-1.2,22.5c0.3,5.4,0.4,8.7-3.3,18.8c-4.1,11-5.9,23-5.4,35.6
		c1.4,36.7,5.3,123.4,13.5,175.9c-7.2,16.7-5.7,36.2,0.6,51.8c1.5,5.6,4.3,21.5,4.8,27.3c-0.1,36,39.1,63.8,66.1,66.6
		c10.4,1.1,45.6,1.1,52.5,1.1c36.4,0,42.8-0.9,45.9-1.3c17.8-2.5,37.1-12.9,48.2-33.7l195-1.2c9.5-0.1,18.6-1.7,27.3-5
		c20.8,1.1,64.8,3.1,106.6,3.9c41.8-0.8,85.8-2.8,106.6-3.9c8.6,3.2,17.8,4.9,27.3,5l195,1.2c11.1,20.8,30.3,31.2,48.2,33.7
		c3.1,0.4,9.5,1.3,45.9,1.3c7,0,42.2-0.1,52.5-1.1c27-2.8,66.3-30.6,66.1-66.6c0.5-5.9,3.3-21.7,4.8-27.3
		c6.3-15.7,7.8-35.2,0.6-51.8c8.2-52.5,12.2-139.2,13.5-175.9C1379.4,1107.1,1377.5,1095.2,1373.5,1084.2z M1333.5,1118
		c-1.2,32.2-5.5,131.9-14.7,180.3c0,0-0.8,9.8,3.3,13.3c4,3.5,3,13,0.3,19.3c-2.8,6.3-8.2,37.8-7.9,43.8c0.3,6-15,19.7-24.7,20.7
		c-9.7,1-77.7,1.3-87.3,0c-9.5-1.3-19.1-8.9-17.6-33.9l-231.8-1.5c-4.3,0-8.5-0.8-12.5-2.5c-2.1-0.9-4.2-1.9-5.5-3.1
		c0,0-61,3.5-116.9,4.5c-55.9-1-116.9-4.5-116.9-4.5c-1.3,1.1-3.4,2.2-5.5,3.1c-4,1.7-8.2,2.5-12.5,2.5l-231.8,1.5
		c1.5,25.1-8,32.6-17.6,33.9c-9.5,1.3-77.6,1-87.3,0c-9.7-1-25.1-14.7-24.7-20.7c0.3-6-5.1-37.5-7.9-43.8
		c-2.8-6.3-3.8-15.8,0.3-19.3c4-3.5,3.3-13.3,3.3-13.3c-9.2-48.4-13.5-148.1-14.7-180.3c-0.2-6.1,0.5-12.2,2.6-17.9
		c10.4-28.3,4.2-36.9,6.4-48.2c2.5-12.5,10.2-42.4,38.3-62.5s65-24.2,65-24.2l-37.5-20.7c-9.7-1.7-34.8-5.3-46.5-7
		c-0.1,0-0.2,0-0.3-0.1c-9.2-1.4-15.9-9.6-15.9-18.9v-4.6c0-4.1,2.4-7.8,6-9.5c10.9-5.1,34.7-15.1,55.4-15.8
		c27.8-1,31.6,28.3,31.6,28.3l32.9,14.3c44.5-77.7,101.8-129.4,119.4-138.4s40.6-16.1,97.8-20.6c54-4.3,149.5-5.8,160-6
		c10.5,0.2,106.1,1.7,160,6c57.2,4.5,80.3,11.5,97.8,20.6s74.9,60.7,119.4,138.4l32.9-14.3c0,0,3.8-29.3,31.6-28.3
		c20.6,0.7,44.5,10.7,55.4,15.8c3.7,1.7,6,5.4,6,9.5v4.6c0,9.3-6.7,17.4-15.9,18.9c-0.1,0-0.2,0-0.3,0.1c-11.7,1.7-36.8,5.4-46.5,7
		l-37.5,20.7c0,0,36.9,4.2,65,24.2s35.8,49.9,38.3,62.5c2.3,11.4-4,19.9,6.4,48.2C1333,1105.8,1333.7,1112,1333.5,1118z"/>
</g>
<g id="Слой_14">
	<path class="st2" d="M1333.5,1118c0.2-6.1-0.5-12.2-2.6-17.9c-10.4-28.3-4.2-36.9-6.4-48.2c-2.5-12.5-10.2-42.4-38.3-62.5
		s-65-24.2-65-24.2l37.5-20.7c9.7-1.7,34.8-5.3,46.5-7c0.1,0,0.2,0,0.3-0.1c9.2-1.4,15.9-9.6,15.9-18.9v-4.6c0-4.1-2.4-7.8-6-9.5
		c-10.9-5.1-34.7-15.1-55.4-15.8c-27.8-1-31.6,28.3-31.6,28.3l-32.9,14.3c-44.5-77.7-101.8-129.4-119.4-138.4s-40.6-16.1-97.8-20.6
		c-54-4.3-149.5-5.8-160-6c-10.5,0.2-106.1,1.7-160,6c-57.2,4.5-80.3,11.5-97.8,20.6S485.5,853.5,441,931.2l-32.9-14.3
		c0,0-3.8-29.3-31.6-28.3c-20.6,0.7-44.5,10.7-55.4,15.8c-3.7,1.7-6,5.4-6,9.5v4.6c0,9.3,6.7,17.4,15.9,18.9c0.1,0,0.2,0,0.3,0.1
		c11.7,1.7,36.8,5.4,46.5,7l37.5,20.7c0,0-36.9,4.2-65,24.2s-35.8,49.9-38.3,62.5c-2.3,11.4,4,19.9-6.4,48.2
		c-2.1,5.7-2.8,11.8-2.6,17.9c1.2,32.2,5.5,131.9,14.7,180.3c0,0,0.8,9.8-3.3,13.3c-4,3.5-3,13-0.3,19.3c2.8,6.3,8.2,37.8,7.9,43.8
		c-0.3,6,15,19.7,24.7,20.7c9.7,1,77.7,1.3,87.3,0c9.5-1.3,19.1-8.9,17.6-33.9l231.8-1.5c4.3,0,8.5-0.8,12.5-2.5
		c2.1-0.9,4.2-1.9,5.5-3.1c0,0,61,3.5,116.9,4.5c55.9-1,116.9-4.5,116.9-4.5c1.3,1.1,3.4,2.2,5.5,3.1c4,1.7,8.2,2.5,12.5,2.5
		l231.8,1.5c-1.5,25.1,8,32.6,17.6,33.9c9.5,1.3,77.6,1,87.3,0c9.7-1,25.1-14.7,24.7-20.7c-0.3-6,5.1-37.5,7.9-43.8
		c2.8-6.3,3.8-15.8-0.3-19.3c-4-3.5-3.3-13.3-3.3-13.3C1328,1250,1332.3,1150.2,1333.5,1118z M1153.3,970.3
		c-2.5,20.1-15,26.6-28.6,26.6H818.2H511.7c-13.5,0-26.1-6.5-28.6-26.6s10-37.1,19.6-53.7c9.5-16.6,63.7-78.7,74.7-85.8
		c11-7,33.6-13.5,57.2-15.5c22.5-1.9,170.3-4.3,183.6-4.5c13.3,0.2,161.1,2.6,183.6,4.5c23.6,2,46.1,8.5,57.2,15.5
		c11,7,65.2,69.2,74.7,85.8C1143.2,933.2,1155.8,950.3,1153.3,970.3z"/>
</g>
<g id="Слой_13">
	<path class="st1" d="M1133.7,916.7c-9.5-16.6-63.7-78.7-74.7-85.8c-11-7-33.6-13.5-57.2-15.5c-22.5-1.9-170.3-4.3-183.6-4.5
		c-13.3,0.2-161.1,2.6-183.6,4.5c-23.6,2-46.1,8.5-57.2,15.5c-11,7-65.2,69.2-74.7,85.8c-9.5,16.6-22.1,33.6-19.6,53.7
		s15,26.6,28.6,26.6h306.5h306.5c13.5,0,26.1-6.5,28.6-26.6S1143.2,933.2,1133.7,916.7z M1095,950.8H818.2H541.4
		c-2.1,0-3.3-2.4-2-4.1c11.5-15.4,52.8-69.4,68.5-78.9c0,0,15.8-10.3,210.3-9.9c194.5-0.4,210.3,9.9,210.3,9.9
		c15.7,9.4,57,63.5,68.5,78.9C1098.3,948.4,1097.1,950.8,1095,950.8z"/>
</g>
<g id="Слой_12">
	<path class="st1" d="M1195.3,1190.3c-0.3-0.1-0.6-0.2-0.9-0.2c-1.3-0.3-2.7-0.4-4.1-0.3c-7.1,0.7-31.7,3.2-60.3,7.8
		c-34.1,5.5-92.8,19.1-106.3,22.6c-13.5,3.5-39.6,7.5-51.7,21.1c-12,13.5,1.5,37.6,6.5,44.6c5,7,11,27.1,29.6,40.6
		c18.6,13.5,57.2,8.5,61.7,9c4.5,0.5,126.9-1,159-10.5c32.1-9.5,30.1-34.6,25.1-53.7c-2.8-10.8-7.9-25.7-11.8-36.6
		C1234.5,1213.2,1217.2,1196.3,1195.3,1190.3z"/>
</g>
<g id="Слой_11">
	<path class="st0" d="M1206.2,1281.3c-1.7,2.7-135.4,11.8-170,7.2c-1-0.1-1.8-0.7-2.4-1.5l-9-13.4c-1.3-1.9-0.3-4.6,1.9-5.2
		c18-5,86.4-23.1,156.2-31.6c4.4-0.5,8.8,1.2,11.7,4.6C1198.7,1246.2,1208,1278.5,1206.2,1281.3z"/>
</g>
<g id="Слой_10">
	<path class="st1" d="M441.1,1190.3c0.3-0.1,0.6-0.2,0.9-0.2c1.3-0.3,2.7-0.4,4.1-0.3c7.1,0.7,31.7,3.2,60.3,7.8
		c34.1,5.5,92.8,19.1,106.3,22.6c13.5,3.5,39.6,7.5,51.7,21.1c12,13.5-1.5,37.6-6.5,44.6s-11,27.1-29.6,40.6s-57.2,8.5-61.7,9
		s-126.9-1-159-10.5c-32.1-9.5-30.1-34.6-25.1-53.7c2.8-10.8,7.9-25.7,11.8-36.6C401.9,1213.2,419.2,1196.3,441.1,1190.3z"/>
</g>
<g id="Слой_9">
	<path class="st0" d="M430.2,1281.3c1.7,2.7,135.4,11.8,170,7.2c1-0.1,1.8-0.7,2.4-1.5l9-13.4c1.3-1.9,0.3-4.6-1.9-5.2
		c-18-5-86.4-23.1-156.2-31.6c-4.4-0.5-8.8,1.2-11.7,4.6C437.7,1246.2,428.4,1278.5,430.2,1281.3z"/>
</g>
<g id="Слой_8">
	<path class="st1" d="M906.8,1182c-0.5-11.5-12.5-21.6-23.1-18.6c-9.5,2.7-56.1,15.5-65.5,18.1c-9.4-2.6-56.1-15.4-65.5-18.1
		c-10.5-3-22.6,7-23.1,18.6c-0.5,11.5,9,17.1,20.1,20.1c10.5,2.9,55.4,15.8,68.5,17.8c13.2-2,58-15,68.5-17.8
		C897.8,1199,907.3,1193.5,906.8,1182z"/>
</g>
<g id="Слой_7">
	<path class="st1" d="M1148.4,1017.1c-6.1,5.2-10.7,12-13.6,19.6c-5.3,14-17,44.6-20.9,54.6c-5,13-6.5,41.6,11.8,49.7
		c18.3,8,79,6,121.6-32.6c42.6-38.6,29.1-83.8-4-99.3C1215,995.6,1173.1,996,1148.4,1017.1z"/>
</g>
<g id="Слой_6">
	<path class="st0" d="M1223.6,1050.5c3.1,1.8,4.5,5.5,3.3,8.8c-2.2,5.8-8,15.7-23.8,23.8c-16.7,8.6-30.5,11.5-37.4,12.5
		c-2.2,0.3-3.9-1.8-3.2-3.9l11.6-33.8c1.6-4.8,5.7-8.3,10.7-9.2C1195.3,1047,1213.6,1044.9,1223.6,1050.5z"/>
</g>
<g id="Слой_5">
	<path class="st1" d="M488,1017.1c6.1,5.2,10.7,12,13.6,19.6c5.3,14,17,44.6,20.9,54.6c5,13,6.5,41.6-11.8,49.7
		c-18.3,8-79,6-121.6-32.6c-42.6-38.6-29.1-83.8,4-99.3C421.4,995.6,463.3,996,488,1017.1z"/>
</g>
<g id="Слой_4">
	<path class="st0" d="M412.8,1050.5c-3.1,1.8-4.5,5.5-3.3,8.8c2.2,5.8,8,15.7,23.8,23.8c16.7,8.6,30.5,11.5,37.4,12.5
		c2.2,0.3,3.9-1.8,3.2-3.9l-11.6-33.8c-1.6-4.8-5.7-8.3-10.7-9.2C441.1,1047,422.8,1044.9,412.8,1050.5z"/>
</g>
<g id="Слой_3">
	<path class="st5" d="M1097,946.7c-11.5-15.4-52.8-69.4-68.5-78.9c0,0-15.8-10.3-210.3-9.9c-194.5-0.4-210.3,9.9-210.3,9.9
		c-15.7,9.4-57,63.5-68.5,78.9c-1.3,1.7-0.1,4.1,2,4.1h276.8H1095C1097.1,950.8,1098.3,948.4,1097,946.7z"/>
</g>
<g id="Слой_2">
	<g>
		<path class="st1" d="M455.2,723.2c-7.8-37.8-15.7-75.6-23.5-113.4c10-2.1,20-4,30-6c10.2-1.9,18-1.1,23.5,2.3
			c5.5,3.5,9,9.7,10.5,18.6c0.5,3,1,6,1.6,9c2,11.7-0.9,20.2-8.6,25.4c4.9,1,8.7,3.3,11.4,7c2.7,3.7,4.5,8.7,5.6,15
			c1,5.9,2,11.7,3.1,17.6c1.1,6.3,2.5,10.8,4.2,13.5c-6.2,1.1-12.5,2.2-18.7,3.3c-0.7-1.2-1.2-2.2-1.5-2.8c-0.3-0.6-0.7-1.9-1.2-3.7
			c-0.5-1.8-1.1-4.2-1.6-7.1c-1.1-6-2.2-11.9-3.3-17.9c-1-5.2-2.6-8.8-5-10.6c-2.4-1.9-5.8-2.4-10.2-1.5c-2.2,0.4-4.4,0.9-6.6,1.3
			c3,15.4,6,30.8,9.1,46.3C467.6,720.6,461.4,721.9,455.2,723.2z M461.6,657c2.5-0.5,5-1,7.6-1.5c3.8-0.7,6.6-2.2,8.2-4.4
			c1.6-2.2,2-5.5,1.2-9.9c-0.7-3.7-1.4-7.5-2.1-11.2c-0.8-4.1-2.1-6.9-4-8.5c-1.9-1.6-4.6-2-8.1-1.4c-3.2,0.6-6.4,1.2-9.5,1.8
			C457,633.7,459.3,645.3,461.6,657z"/>
		<path class="st1" d="M517.3,683.3c-3.3-19.8-6.6-39.6-10-59.4c-1.5-9.1-0.1-16.6,4.3-22.5c4.4-5.8,11.5-9.6,21.3-11
			c9.8-1.5,17.7,0,23.6,4.3c5.9,4.3,9.4,11,10.7,20.2c2.7,19.9,5.4,39.8,8,59.7c1.2,9.2-0.3,16.6-4.5,22.3
			c-4.2,5.7-10.9,9.2-20.1,10.6c-9.2,1.4-16.6,0-22.4-4.2C522.5,699,518.8,692.4,517.3,683.3z M536.5,681.3
			c1.2,7.6,5.1,10.8,11.7,9.8c6.5-1,9.2-5.2,8.1-12.8c-3-20.6-6-41.2-9-61.8c-1.1-7.5-5.1-10.8-11.9-9.7c-6.9,1-9.8,5.3-8.6,12.8
			C530,640.1,533.3,660.7,536.5,681.3z"/>
		<path class="st1" d="M584.6,673.3c-0.3-2.3-0.6-4.7-0.9-7c6.6-0.8,13.1-1.7,19.7-2.4c0.3,2.7,0.6,5.5,1,8.2
			c0.9,7.5,4.4,10.9,10.4,10.2c6.1-0.7,8.7-4.7,7.9-12.2c-0.3-3.2-1.4-6.2-3-8.8c-1.7-2.7-3.7-5-6.1-7.1c-2.4-2-5.1-4-8-6
			c-2.9-2-5.9-4-9-6.2c-3.1-2.1-5.9-4.5-8.5-7c-2.6-2.5-4.9-5.6-6.8-9.2c-1.9-3.7-3.2-7.7-3.8-12.1c-1.2-9.2,0.6-16.7,5.4-22.4
			c4.8-5.7,11.9-9.1,21.1-10.1c9.3-1,16.7,0.7,22.2,5.2c5.5,4.5,8.7,11.4,9.6,20.7c0.1,1.2,0.2,2.5,0.4,3.7
			c-6.2,0.6-12.5,1.2-18.7,1.9c-0.2-1.6-0.3-3.2-0.5-4.8c-0.8-7.5-4.6-11-11.2-10.2c-3.3,0.4-5.7,1.6-7.1,3.5c-1.4,2-1.9,5-1.5,8.9
			c0.4,3.2,1.5,6.1,3.2,8.8c1.8,2.7,3.9,5,6.4,7c2.5,2,5.3,4,8.2,6c3,2,6,4.1,8.9,6.3c3,2.2,5.7,4.6,8.2,7.1
			c2.5,2.6,4.6,5.7,6.4,9.4c1.8,3.7,2.9,7.8,3.3,12.3c0.9,9.3-0.8,16.6-5.1,22.1c-4.3,5.5-10.8,8.7-19.6,9.7c-8.7,1-16-0.7-21.8-5
			C589.4,689.3,585.8,682.5,584.6,673.3z"/>
		<path class="st1" d="M640.3,595.2c-0.5-5.5-1-11-1.6-16.5c20.7-2,41.5-3.6,62.3-4.8c0.3,5.5,0.7,11,1,16.5
			c-7,0.4-13.9,0.9-20.9,1.4c2.4,33,4.8,66,7.2,99c-6.3,0.5-12.6,0.9-18.9,1.5c-2.7-33-5.5-65.9-8.2-98.9
			C654.2,593.9,647.3,594.5,640.3,595.2z"/>
		<path class="st1" d="M713.1,661.3c-1.2-20-2.3-40.1-3.5-60.1c-0.5-9.2,1.7-16.5,6.7-21.9c5-5.3,12.5-8.2,22.3-8.7
			c9.9-0.4,17.5,1.9,22.9,6.8c5.4,4.9,8.2,12,8.4,21.3c0.5,20.1,1,40.1,1.5,60.2c0.2,9.3-2.1,16.5-6.9,21.7
			c-4.8,5.2-11.8,8-21.1,8.3c-9.3,0.4-16.5-1.8-21.7-6.6C716.6,677.5,713.7,670.5,713.1,661.3z M732.4,661.4
			c0.4,7.6,3.9,11.3,10.5,11c6.6-0.3,9.7-4.2,9.5-11.8c-0.7-20.8-1.5-41.6-2.2-62.5c-0.3-7.6-3.9-11.3-10.7-11
			c-7,0.3-10.3,4.3-9.9,11.8C730.4,619.8,731.4,640.6,732.4,661.4z"/>
		<path class="st1" d="M782.7,636.8c-0.1-5.5-0.2-11-0.3-16.5c11.9-0.2,23.8-0.3,35.7-0.3c0,5.5,0,11,0,16.6
			C806.3,636.5,794.5,636.6,782.7,636.8z"/>
		<path class="st1" d="M819.9,586.9c0-5.5,0-11,0-16.6c20.8,0,41.6,0.4,62.4,1.1c-0.2,5.5-0.4,11-0.6,16.5c-7-0.2-14-0.4-20.9-0.6
			c-0.8,33.1-1.5,66.1-2.3,99.2c-6.3-0.1-12.6-0.3-18.9-0.3c0.4-33.1,0.8-66.2,1.3-99.2C833.9,586.9,826.9,586.9,819.9,586.9z"/>
		<path class="st1" d="M886.5,659.7c0.8-19.7,1.5-39.4,2.3-59.1c0.7-20,11.4-29.8,32-28.7c9.8,0.5,17,3.5,21.8,8.9
			c4.8,5.4,6.8,12.7,6.1,22c-0.1,1-0.1,2-0.2,3c-6.2-0.4-12.4-0.8-18.6-1.2c0.1-1.4,0.2-2.7,0.2-4.1c0.5-7.6-2.8-11.6-9.7-12
			c-3.8-0.2-6.6,0.7-8.5,2.7c-1.9,2-3,5.6-3.2,10.9c-0.3,7-0.7,14.1-1,21.1c3.8-6.7,10.1-9.8,18.8-9.3c7.2,0.4,12.5,3,15.8,7.8
			c3.3,4.8,4.7,11.4,4.1,20c-0.5,7-1,14.1-1.5,21.1c-0.7,9.2-3.7,16.2-8.9,20.9c-5.3,4.7-12.5,6.8-21.7,6.3
			c-9.2-0.5-16.2-3.3-20.9-8.6C888.4,676.1,886.1,668.9,886.5,659.7z M905.6,661.6c-0.4,7.5,2.8,11.4,9.4,11.8
			c6.5,0.4,10-3.2,10.5-10.7c0.4-6.9,0.8-13.9,1.2-20.8c0.5-7.6-2.7-11.6-9.4-11.9c-6.8-0.4-10.3,3.3-10.7,10.8
			C906.3,647.7,906,654.7,905.6,661.6z"/>
		<path class="st1" d="M955.8,663.6c0.2-3.2,0.5-6.4,0.7-9.6c6.4,0.5,12.8,1,19.3,1.6c-0.3,3.6-0.6,7.1-0.9,10.7
			c-0.7,7.6,2.3,11.7,8.8,12.3c3.3,0.3,5.8-0.4,7.6-2.2c1.8-1.8,3-5.1,3.5-9.9c0.3-3,0.6-6.1,0.9-9.1c0.5-5.2-0.1-9.1-1.9-11.5
			c-1.8-2.4-4.9-3.9-9.4-4.3c-2.2-0.2-4.4-0.4-6.6-0.6c0.5-5.5,1-11,1.5-16.5c2.6,0.2,5.1,0.5,7.7,0.7c3.9,0.4,6.9-0.3,9.1-1.9
			c2.2-1.7,3.5-4.7,3.9-9.1c0.2-2.1,0.4-4.3,0.6-6.4c0.5-4.9,0-8.4-1.6-10.5c-1.5-2.1-4-3.3-7.4-3.6c-6.8-0.6-10.6,2.9-11.2,10.4
			c-0.2,2.5-0.4,4.9-0.6,7.4c-6.6-0.6-13.2-1.1-19.7-1.6c0.2-2.1,0.3-4.2,0.5-6.3c0.7-9.3,3.9-16.2,9.7-20.8
			c5.8-4.6,13.6-6.4,23.4-5.5c9.8,0.9,17,4.2,21.5,9.7c4.5,5.5,6.3,13,5.3,22.2c-0.1,1-0.2,2-0.3,3c-1.4,12.3-6.8,19.7-16.2,22.2
			c8.7,4.6,12.3,13.1,11,25.6c-0.3,3-0.7,6-1,9.1c-1,9.3-4.2,16.1-9.5,20.6c-5.3,4.5-12.5,6.3-21.7,5.4c-9.2-0.9-16.1-4-20.8-9.4
			C957.1,680.3,955.1,672.9,955.8,663.6z"/>
		<path class="st1" d="M1022.7,698c0.6-5.5,1.3-11.1,1.9-16.6c6.3,0.7,12.7,1.5,19,2.3c-0.7,5.5-1.4,11.1-2.1,16.6
			C1035.2,699.5,1028.9,698.7,1022.7,698z"/>
		<path class="st1" d="M1054.4,702c5.1-38.3,10.3-76.5,15.4-114.8c10.1,1.4,20.1,2.8,30.2,4.3c10.2,1.5,17.4,4.9,21.4,10
			c4,5.1,5.3,12.1,3.8,21c-0.5,3-1,6-1.5,9c-2,11.7-7.5,18.7-16.5,21.1c4.3,2.5,7.1,6,8.4,10.4c1.3,4.4,1.4,9.7,0.3,16
			c-1,5.9-2,11.7-2.9,17.6c-1.1,6.3-1.2,11-0.6,14.2c-6.2-1-12.5-2.1-18.7-3c-0.2-1.4-0.4-2.4-0.4-3.1c-0.1-0.7,0-2,0.1-3.9
			c0.1-1.9,0.4-4.3,0.8-7.3c0.9-6,1.9-12,2.8-18c0.8-5.3,0.4-9.2-1.2-11.7c-1.6-2.5-4.7-4.2-9.1-4.8c-2.2-0.3-4.5-0.7-6.7-1
			c-2.3,15.6-4.5,31.1-6.8,46.7C1066.9,703.7,1060.7,702.8,1054.4,702z M1082.3,641.6c2.5,0.4,5.1,0.7,7.6,1.1
			c3.9,0.6,6.9,0.1,9.1-1.4c2.2-1.5,3.7-4.5,4.4-8.9c0.6-3.7,1.2-7.5,1.8-11.2c0.6-4.1,0.3-7.2-1-9.3c-1.3-2.1-3.7-3.5-7.2-4
			c-3.2-0.5-6.4-1-9.6-1.4C1085.8,618.1,1084,629.9,1082.3,641.6z"/>
		<path class="st1" d="M1126.9,685.2c5-29,10.1-57.9,15.1-86.9c6.6,1.2,13.3,2.3,19.9,3.6c-5.4,29.3-10.8,58.5-16.2,87.8
			c-1.4,7.4,1.2,11.7,7.7,13c6.5,1.2,10.4-1.8,11.9-9.2c5.7-29.2,11.5-58.4,17.2-87.6c6.6,1.3,13.2,2.6,19.8,4
			c-6,28.8-11.9,57.6-17.9,86.3c-1.9,9.1-5.9,15.6-11.9,19.5c-6,3.9-13.5,5-22.7,3.2c-9.1-1.7-15.6-5.5-19.5-11.3
			C1126.5,701.8,1125.3,694.4,1126.9,685.2z"/>
	</g>
</g>
<g id="Слой_1_1_">
	<g>
		<path class="st1" d="M229.3,524.5c-5.4-72-9.7-144.2-13.2-216.5c18.7-4.2,37.4-8.2,56.2-12c26.5,67.3,52.1,135,76.7,202.9
			c-11.2,2.1-22.4,4.3-33.6,6.6c-4.5-12.3-9.1-24.5-13.7-36.8c-13.9,2.9-27.8,5.8-41.7,8.9c0.9,13.1,1.7,26.1,2.7,39.1
			C251.5,519.2,240.4,521.8,229.3,524.5z M258.1,448.2c11.1-2.4,22.1-4.8,33.2-7.1c-12.9-34-25.9-67.9-39.2-101.7
			C253.9,375.7,255.9,412,258.1,448.2z"/>
		<path class="st1" d="M362.1,496.4c-12.9-70.1-25.8-140.2-38.6-210.3c18.4-3.4,36.8-6.6,55.3-9.6c18.8-3,33.2-1.1,43,5.6
			c9.9,6.7,15.9,18.3,18.3,34.9c0.4,2.5,0.7,5,1.1,7.5c3.1,21.7-2.6,36.9-16.9,46c18.6,3.7,29.4,17.7,32.8,41.5
			c0.8,5.8,1.6,11.5,2.4,17.3c2.3,16.3-0.4,29.4-7.9,39.2c-7.5,9.8-19.6,16-36.4,18.7C397.5,490.1,379.8,493.1,362.1,496.4z
			 M374.6,365.5c4.6-0.8,9.3-1.6,13.9-2.3c7.1-1.2,12.1-3.7,15.2-7.7c3.1-4,4-10,2.7-18c-0.6-3.9-1.2-7.9-1.8-11.8
			c-1.2-7.6-3.5-12.9-6.9-15.9c-3.5-3-8.4-4-14.9-3c-5.9,1-11.7,1.9-17.6,2.9C368.3,328.3,371.5,346.9,374.6,365.5z M390.7,460.3
			c6.5-1.1,13-2.2,19.6-3.2c6-1,10.2-3.2,12.6-6.8c2.4-3.6,3.1-9.2,1.9-16.8c-0.9-6.1-1.9-12.3-2.8-18.4c-1.5-9.6-4.2-16-8.3-19.2
			c-4.1-3.2-10.1-4.1-18.2-2.8c-5.2,0.9-10.5,1.7-15.7,2.6C383.4,417.2,387.1,438.7,390.7,460.3z"/>
		<path class="st1" d="M452.2,296.4c-1.4-10.1-2.8-20.2-4.1-30.3c37.9-5.2,75.9-9.5,114-13.1c1,10.1,1.9,20.3,2.9,30.4
			c-12.7,1.2-25.5,2.5-38.2,3.9c6.6,60.7,13.1,121.5,19.7,182.2c-11.3,1.2-22.6,2.5-33.9,3.9c-7.4-60.6-14.8-121.3-22.2-181.9
			C477.6,293.1,464.8,294.7,452.2,296.4z"/>
		<path class="st1" d="M589.3,413.8c-3.3-36.9-6.6-73.9-9.9-110.8c-1.5-17,2.1-30.6,10.9-40.8c8.9-10.1,22.4-15.9,40.5-17.1
			c18.1-1.2,32.3,2.7,42.4,11.5c10.1,8.8,15.5,21.8,16.3,38.9c1.8,37,3.5,74.1,5.3,111.1c0.8,17.1-3.1,30.5-11.5,40.3
			c-8.4,9.8-20.9,15.2-37.6,16.3c-16.6,1.1-29.8-2.5-39.5-11.1C596.6,443.5,590.9,430.8,589.3,413.8z M624.2,413
			c1.1,14.1,7.6,20.6,19.6,19.8c11.9-0.8,17.4-8.2,16.5-22.3c-2.3-38.4-4.7-76.8-7-115.2c-0.8-14-7.6-20.6-20.2-19.8
			c-12.7,0.9-18.6,8.4-17.5,22.3C618.4,336.3,621.3,374.6,624.2,413z"/>
		<path class="st1" d="M719.4,456.8c-2.8-71.2-5.5-142.5-8.3-213.7c12.3-0.5,24.6-0.9,37-1.2c1.5,61.1,3.1,122.1,4.6,183.2
			c10-0.3,19.9-0.4,29.9-0.6c-0.8-61.1-1.7-122.2-2.5-183.3c12.3-0.2,24.7-0.2,37-0.2c0,61.1,0,122.2,0,183.3
			c10,0,19.9,0.1,29.9,0.2c0.7-61.1,1.4-122.2,2.2-183.3c12.3,0.1,24.6,0.4,37,0.7c-1.8,71.3-3.6,142.5-5.4,213.8
			C826.9,454.4,773.1,454.8,719.4,456.8z"/>
		<path class="st1" d="M905.4,456.5c2.5-71.2,5-142.5,7.5-213.7c12.3,0.4,24.6,0.9,37,1.5c-1.5,31-3,62.1-4.5,93.1
			c17.1-30.3,34.8-60.4,53-90.3c12.3,0.8,24.6,1.7,36.9,2.7c-19.6,30.3-38.7,60.8-57.2,91.5c14.1,40.5,27.5,81,40.1,121.7
			c-11.6-0.9-23.3-1.8-34.9-2.6c-9.2-29.1-18.7-58.1-28.6-87c-4,6.3-8,12.6-11.9,19c-1.1,21.8-2.1,43.7-3.2,65.5
			C928.1,457.4,916.7,456.9,905.4,456.5z"/>
		<path class="st1" d="M1035,412.9c3.1-36.9,6.3-73.9,9.4-110.8c1.4-17,7.3-29.8,17.8-38.3c10.5-8.4,24.8-11.8,42.9-9.9
			c18.1,1.9,31.4,8.2,39.8,18.6c8.4,10.4,11.5,24.2,9.3,41.1c-4.7,36.8-9.3,73.6-14,110.4c-2.2,17-8.3,29.5-18.3,37.7
			c-10,8.2-23.2,11.3-39.8,9.6c-16.6-1.8-28.9-7.6-37-17.7C1036.9,443.5,1033.5,430,1035,412.9z M1069.4,418.2
			c-1.4,14.1,3.9,21.6,15.8,22.9c11.8,1.3,18.5-5.1,20.1-19.1c4.3-38.2,8.6-76.5,13-114.7c1.6-13.9-3.9-21.6-16.5-23
			c-12.7-1.3-19.7,5-21.1,19C1077,341.6,1073.2,379.9,1069.4,418.2z"/>
		<path class="st1" d="M1146.4,476.9c1.3-10.1,2.7-20.2,4-30.3c4.2,0.6,7.5,0.8,9.8,0.7c2.4-0.1,4.5-0.8,6.6-2c2-1.3,3.6-3.3,4.7-6
			c1.1-2.8,2.1-6.6,3-11.5c8.8-53.2,17.6-106.3,26.6-159.5c35.1,5,70.1,10.6,105,17c-12.8,70.1-25.5,140.3-38.3,210.4
			c-11.2-2-22.5-4-33.7-5.9c10.1-60.2,20.2-120.5,30.4-180.7c-10.5-1.8-20.9-3.4-31.4-5.1c-8,42.4-15.9,84.8-23.7,127.2
			c-3.6,19.2-9.9,32.3-18.8,39.4c-8.9,7.1-21.8,9.4-38.8,7.2C1149.9,477.3,1148.1,477.1,1146.4,476.9z"/>
		<path class="st1" d="M1285,498.8c24.6-67.9,50.2-135.5,76.7-202.9c18.8,3.8,37.5,7.8,56.2,12c-3.4,72.3-7.8,144.5-13.2,216.5
			c-11.1-2.7-22.3-5.3-33.4-7.8c0.9-13,1.8-26.1,2.6-39.1c-13.9-3.1-27.8-6.1-41.7-8.9c-4.6,12.3-9.1,24.5-13.6,36.8
			C1307.4,503.1,1296.2,500.9,1285,498.8z M1342.6,441.1c11.1,2.3,22.2,4.7,33.2,7.1c2.2-36.3,4.2-72.6,5.9-108.9
			C1368.5,373.2,1355.4,407.1,1342.6,441.1z"/>
	</g>
</g>
</svg>
