<svg xmlns="http://www.w3.org/2000/svg" viewBox="0 0 2124 2134"><title>home</title><g id="Слой_2" data-name="Слой 2"><g id="Слой_1-2" data-name="Слой 1"><path d="M2124,1020v20c-.58,1.13-1.49,2.2-1.69,3.39-4.61,27.54-24.81,49.74-51.81,55.88a109.6,109.6,0,0,1-23.8,2.3q-115,.24-230,.12c-3.83,0-7.67.33-12.13.54v950.88c0,4,.07,8,0,12a70.47,70.47,0,0,1-47.48,65.25c-3.07,1.1-6.06,2.42-9.08,3.64H1366V1408.24c0-2.67,0-5.33,0-8-1-31.41-22.33-58.61-52.8-66.24-8.27-2.07-17.13-2.49-25.72-2.5q-224.43-.21-448.85-.09c-4,0-8,.07-12,.26-17,.82-31.69,7.36-44,18.95-16.27,15.31-22.7,34.47-22.68,56.62q.21,363.38.09,726.76H378c-2.71-1.11-5.38-2.31-8.13-3.3-24.77-9-40.64-26.15-46.69-51.75-1.73-7.34-1.71-15.2-1.71-22.83q-.12-469.84-.07-939.69v-14.76H84.54c-3.67,0-7.34.07-11,0-34.63-1-60-20.73-69.65-54-.78-2.7-2.57-5.12-3.89-7.67v-20c1.14-2,2.86-3.82,3.32-6,3.52-16,12.77-28.2,24.28-39.31q164.91-159.4,329.66-319L890.81,139.33q59.6-57.69,119.12-115.47c11.52-11.23,24.56-19.26,40.5-22.24A16.26,16.26,0,0,0,1054,0h18a16.26,16.26,0,0,0,3.57,1.62c16,3,29,11.05,40.51,22.25q219.32,212.51,438.79,424.86Q1779,665.65,2003.1,882.53q49.58,48,99.06,96c8.55,8.27,15,17.81,18.67,29.15C2122.12,1011.72,2123,1015.89,2124,1020Z"/></g></g></svg>